<?xml version="1.0" encoding="UTF-8"?>
<svg width="56px" height="56px" viewBox="0 0 56 56" version="1.1" xmlns="http://www.w3.org/2000/svg" xmlns:xlink="http://www.w3.org/1999/xlink">
    <title>0. Logo/Icon/D4L CovHub</title>
    <g id="0.-Logo/Icon/D4L-CovHub" stroke="none" stroke-width="1" fill="none" fill-rule="evenodd">
        <rect id="Background" fill="#FFFAF9" x="0" y="0" width="56" height="56" rx="12"></rect>
        <path d="M44,0 C50.627417,0 56,5.372583 56,12 L56,44 C56,50.627417 50.627417,56 44,56 L12,56 C5.372583,56 0,50.627417 0,44 L0,12 C0,5.372583 5.372583,0 12,0 L44,0 Z M44,2 L12,2 C6.57076009,2 2.15206828,6.32667079 2.0038418,11.7200952 L2,12 L2,44 C2,49.4292399 6.32667079,53.8479317 11.7200952,53.9961582 L12,54 L44,54 C49.4292399,54 53.8479317,49.6733292 53.9961582,44.2799048 L54,44 L54,12 C54,6.57076009 49.6733292,2.15206828 44.2799048,2.0038418 L44,2 Z" id="Border" fill="#FFD2C3"></path>
        <path d="M10.8656716,39.5209552 C10.8656716,38.1836418 11.6401433,37.2475224 12.7675821,37.2475224 C13.408406,37.2475224 13.8984478,37.5350448 14.1623164,38.1401791 L14.1623164,35.5391045 L14.786006,35.5391045 L14.786006,41.6907463 L14.2000119,41.6907463 L14.2000119,40.768 C13.942997,41.4099104 13.408406,41.7910448 12.6990448,41.7910448 C11.595594,41.7910448 10.8656716,40.8716418 10.8656716,39.5209552 Z M14.172597,39.6145672 L14.172597,39.4340299 C14.172597,38.4444179 13.6825552,37.785791 12.8566806,37.785791 C12.0205254,37.785791 11.5236299,38.4377313 11.5236299,39.5209552 C11.5236299,40.5974925 12.0205254,41.2561194 12.8498269,41.2561194 C13.6654209,41.2561194 14.172597,40.5774328 14.172597,39.6145672 Z M16.0470925,40.544 C16.0470925,40.1260896 16.2355701,39.7884179 16.5885373,39.5711045 C16.9072358,39.3872239 17.3458746,39.2668657 18.0483821,39.1799403 L19.0353194,39.0662687 L19.0353194,38.9960597 C19.0353194,38.103403 18.7166209,37.7456716 17.9592836,37.7456716 C17.2910448,37.7456716 16.8832478,38.0833433 16.8489791,38.6985075 L16.1807403,38.6985075 C16.2355701,37.8058507 16.927797,37.2408358 17.949003,37.2408358 C19.1415522,37.2408358 19.6555821,37.7791045 19.6555821,39.0361791 L19.6555821,40.1628657 C19.6555821,40.838209 19.7001313,41.3263284 19.7960836,41.6840597 L19.148406,41.6840597 C19.1004299,41.3965373 19.0730149,41.1056716 19.0695881,40.814806 C18.8571224,41.4232836 18.2882627,41.7843582 17.5206448,41.7843582 C16.6330866,41.7910448 16.0470925,41.2895522 16.0470925,40.544 Z M19.0421731,39.7984478 L19.0421731,39.5209552 L17.7810866,39.694806 C17.0237493,39.7984478 16.6947701,40.049194 16.6947701,40.5272836 C16.6947701,40.9953433 17.0682985,41.2895522 17.6645731,41.2895522 C18.4904478,41.2895522 19.0421731,40.6810746 19.0421731,39.7984478 L19.0421731,39.7984478 Z M20.5431403,37.3511642 L21.3621612,37.3511642 L21.3621612,35.8834627 L21.9858507,35.8834627 L21.9858507,37.3511642 L23.1338507,37.3511642 L23.1338507,37.8526567 L21.9858507,37.8526567 L21.9858507,40.4570746 C21.9858507,40.968597 22.2154507,41.1959403 22.6780776,41.1959403 C22.8322866,41.1959403 22.9830687,41.1792239 23.1304239,41.1424478 L23.1304239,41.687403 C22.9316657,41.7442388 22.7226269,41.7676418 22.5170149,41.7642985 C21.6534448,41.7642985 21.3621612,41.2527761 21.3621612,40.4804776 L21.3621612,37.8526567 L20.5431403,37.8526567 L20.5431403,37.3511642 Z M23.8432119,40.544 C23.8432119,40.1260896 24.0316896,39.7884179 24.3846567,39.5711045 C24.7033552,39.3872239 25.141994,39.2668657 25.8445015,39.1799403 L26.8314388,39.0662687 L26.8314388,38.9960597 C26.8314388,38.103403 26.5127403,37.7456716 25.755403,37.7456716 C25.0871642,37.7456716 24.6793672,38.0833433 24.6450985,38.6985075 L23.9768597,38.6985075 C24.0316896,37.8058507 24.7239164,37.2408358 25.7451224,37.2408358 C26.9376716,37.2408358 27.4517015,37.7791045 27.4517015,39.0361791 L27.4517015,40.1628657 C27.4517015,40.838209 27.4962507,41.3263284 27.592203,41.6840597 L26.9445254,41.6840597 C26.8965493,41.3965373 26.8691343,41.1056716 26.8657075,40.814806 C26.6532418,41.4232836 26.0843821,41.7843582 25.3167642,41.7843582 C24.4326328,41.7910448 23.8432119,41.2895522 23.8432119,40.544 L23.8432119,40.544 Z M26.8417194,39.7984478 L26.8417194,39.5209552 L25.5806328,39.694806 C24.8232955,39.7984478 24.4943164,40.049194 24.4943164,40.5272836 C24.4943164,40.9953433 24.8678448,41.2895522 25.4641194,41.2895522 C26.289994,41.2895522 26.8417194,40.6810746 26.8417194,39.7984478 L26.8417194,39.7984478 Z M32.0608358,40.1093731 L32.0608358,41.6907463 L31.4474269,41.6907463 L31.4474269,40.1093731 L28.4592,40.1093731 L28.4592,39.6680597 L31.4028776,35.5391045 L32.0608358,35.5391045 L32.0608358,39.6078806 L32.8798567,39.6078806 L32.8798567,40.1093731 L32.0608358,40.1093731 Z M31.4645612,36.241194 L31.4474269,36.241194 C31.341194,36.4919403 31.2075463,36.7092537 31.0224955,36.9767164 L29.6174806,38.9459104 C29.4221493,39.2401194 29.2885015,39.424 29.1205851,39.6045373 L31.4508537,39.6045373 L31.4508537,37.0970746 C31.4474269,36.6925373 31.4474269,36.5186866 31.4645612,36.241194 Z M34.6584,41.6907463 L34.044991,41.6907463 L34.044991,35.5391045 L34.6584,35.5391045 L34.6584,41.6907463 Z M37.2148418,35.9503284 C37.2148418,36.2345075 36.9783881,36.4618507 36.6905313,36.4618507 C36.4026746,36.4618507 36.1662209,36.2311642 36.1662209,35.9503284 C36.1662209,35.6661493 36.4026746,35.438806 36.6905313,35.438806 C36.9818149,35.438806 37.2148418,35.6694925 37.2148418,35.9503284 L37.2148418,35.9503284 Z M36.3821134,41.6907463 L36.9955224,41.6907463 L36.9955224,37.3511642 L36.3821134,37.3511642 L36.3821134,41.6907463 Z M40.7479403,37.8526567 L39.5930866,37.8526567 L39.5930866,41.6907463 L38.9796776,41.6907463 L38.9796776,37.8526567 L38.1606567,37.8526567 L38.1606567,37.3511642 L38.9796776,37.3511642 L38.9796776,36.7226269 C38.9796776,35.9402985 39.4525851,35.438806 40.2236299,35.438806 C40.4018269,35.4354627 40.576597,35.4555224 40.7479403,35.4989851 L40.7479403,36.0205373 C40.6005851,35.993791 40.4532299,35.9804179 40.3024478,35.9770746 C39.8055522,35.9770746 39.5896597,36.2378507 39.5896597,36.7995224 L39.5896597,37.3478209 L40.7479403,37.3478209 L40.7479403,37.8526567 Z M45.1343284,39.6747463 L41.9062209,39.6747463 C41.9165015,40.6543284 42.4682269,41.2527761 43.3283701,41.2527761 C43.9520597,41.2527761 44.3941254,40.9151045 44.582603,40.3233433 L45.1069134,40.5306269 C44.8327642,41.3363582 44.1816597,41.7877015 43.2838209,41.7877015 C42.0227343,41.7877015 41.2825313,40.9986866 41.2825313,39.5410149 C41.2825313,38.1167761 42.0295881,37.2408358 43.256406,37.2408358 C44.4489552,37.2408358 45.1343284,37.9362388 45.1343284,39.2534925 L45.1343284,39.6747463 Z M44.5037851,39.1030448 C44.5037851,38.2103881 44.0411582,37.7322985 43.2495522,37.7322985 C42.4236776,37.7322985 41.9233552,38.2872836 41.9062209,39.1799403 L44.5037851,39.1799403 L44.5037851,39.1030448 L44.5037851,39.1030448 Z M10.8656716,15.0447761 C15.0293134,15.0447761 18.4047761,18.3379104 18.4047761,22.4 C18.4047761,26.4620896 15.0293134,29.7552239 10.8656716,29.7552239 L10.8656716,15.0447761 Z M40.3367164,25.241791 L40.3367164,15.2119403 L35.7104478,15.2119403 L35.7104478,29.5880597 L45.1343284,29.5880597 L45.1343284,25.241791 L40.3367164,25.241791 Z M29.5420896,24.7402985 C28.1233672,24.7402985 26.9719403,25.8636418 26.9719403,27.2477612 C26.9719403,28.6318806 28.1233672,29.7552239 29.5420896,29.7552239 C30.9608119,29.7552239 32.1122388,28.6318806 32.1122388,27.2477612 C32.1122388,25.8636418 30.9608119,24.7402985 29.5420896,24.7402985 L29.5420896,24.7402985 Z M26.6292537,23.2358209 L32.1122388,15.2119403 L26.6292537,15.2119403 L21.1462687,23.2358209 L26.6292537,23.2358209 Z" id="Shape" fill="#000080"></path>
    </g>
</svg>